<svg xmlns="http://www.w3.org/2000/svg" width="67.525" height="79.802" viewBox="0 0 67.525 79.802">
  <path id="android" d="M215.643,145.025a1.87,1.87,0,0,0,0-3.741,1.722,1.722,0,0,0-1.295.552,1.912,1.912,0,0,0,0,2.638A1.722,1.722,0,0,0,215.643,145.025Zm20.238,0a1.722,1.722,0,0,0,1.295-.552,1.912,1.912,0,0,0,0-2.638,1.722,1.722,0,0,0-1.295-.552,1.87,1.87,0,0,0,0,3.741Zm-38.942,8.824a4.912,4.912,0,0,1,4.892,4.892v20.622a4.806,4.806,0,0,1-1.415,3.5,4.686,4.686,0,0,1-3.477,1.439,4.912,4.912,0,0,1-4.94-4.94V158.741a4.709,4.709,0,0,1,1.439-3.453A4.765,4.765,0,0,1,196.94,153.849Zm50.835.911V186.7a5.09,5.09,0,0,1-1.535,3.741,5.034,5.034,0,0,1-3.693,1.535h-3.6v10.886a4.94,4.94,0,1,1-9.879,0V191.976h-6.618v10.886a4.912,4.912,0,0,1-4.94,4.94,4.709,4.709,0,0,1-3.453-1.439,4.765,4.765,0,0,1-1.439-3.5l-.048-10.886h-3.549a5.24,5.24,0,0,1-5.275-5.275v-31.94Zm-11.126-19.423a21.09,21.09,0,0,1,8.2,7.362,18.59,18.59,0,0,1,3.069,10.335H203.558a18.59,18.59,0,0,1,3.069-10.335,21.006,21.006,0,0,1,8.249-7.362l-3.405-6.283a.631.631,0,0,1,.24-.959.665.665,0,0,1,.959.288l3.453,6.33a24.073,24.073,0,0,1,19.279,0l3.453-6.33a.665.665,0,0,1,.959-.288.631.631,0,0,1,.24.959Zm22.876,23.4v20.622a4.912,4.912,0,0,1-4.94,4.94,4.709,4.709,0,0,1-3.453-1.439,4.765,4.765,0,0,1-1.439-3.5V158.741a4.686,4.686,0,0,1,1.439-3.477,4.749,4.749,0,0,1,3.453-1.415,4.806,4.806,0,0,1,3.5,1.415A4.686,4.686,0,0,1,259.525,158.741Z" transform="translate(-192 -128)" fill="#fff"/>
</svg>
