<svg xmlns="http://www.w3.org/2000/svg" width="96.47" height="81.313" viewBox="0 0 96.47 81.313">
  <path id="gallery" d="M87.058,52.678,87.2,32.485a2.688,2.688,0,0,0-2.689-2.7h0l-22.776.027a19.688,19.688,0,0,0-.345-3.009l-.11-.546L56.952,24.94c-.085-.222-.177-.442-.273-.658l.352-.658h13.96V21.762H58.027l.778-1.455-.135-.2h4.638l3.665-3.519H85.023a3.933,3.933,0,1,0,0-1.862h-18.8L62.56,18.243H57.31A19.646,19.646,0,0,0,52.8,14.211l-.5-.324L48.632,16.2l-.1-.045-.8-4.282-.57-.151a19.9,19.9,0,0,0-10.115.015l-.579.155-.716,4.255c-.135.06-.268.12-.4.182l-3.712-2.233-.492.333a19.63,19.63,0,0,0-5.516,5.625l-.329.509,2.347,3.579c-.152.336-.294.68-.424,1.027l-4.206.946L22.9,26.7a19.839,19.839,0,0,0-.411,4.017h.089a2.675,2.675,0,0,0-.73,1.831V44.98H11a4.005,4.005,0,0,0-4,4V86.874a4.005,4.005,0,0,0,4,4H26.584a4.005,4.005,0,0,0,4-4V72.188h13.69l-3.519,8.8H66.381l-3.52-8.8H70.73a15.838,15.838,0,1,0,16.328-19.51Zm1.776-39.094a2.072,2.072,0,1,1-2.072,2.071,2.072,2.072,0,0,1,2.072-2.071ZM28.645,26.753l.167-.5a14.049,14.049,0,0,1,.735-1.778L29.784,24,27.53,20.559A17.745,17.745,0,0,1,31.706,16.3l3.563,2.144.461-.235q.584-.3,1.2-.544l.488-.193.688-4.088a18.1,18.1,0,0,1,8.016-.011l.766,4.108.472.191c.316.129.628.265.932.415l.466.227L52.273,16.1a17.744,17.744,0,0,1,4.361,4.315L54.6,24.227l.2.426a14.062,14.062,0,0,1,.564,1.357l.157.442,4.141,1.258a17.865,17.865,0,0,1,.215,2.1l-7.383.009a10.244,10.244,0,0,0-20.414.024l-7.544.009c-.052,0-.1.012-.151.015a18.088,18.088,0,0,1,.225-2.208Zm21.941,3.07-16.6.02a8.342,8.342,0,0,1,16.6-.02Zm-26.88,2.722a.831.831,0,0,1,.829-.829l59.974-.071h0a.829.829,0,0,1,.827.829l-.142,20.2A15.857,15.857,0,0,0,71.163,63.286H30.585V48.98a4.005,4.005,0,0,0-4-4H23.706ZM8.862,48.98A2.141,2.141,0,0,1,11,46.842H26.584a2.141,2.141,0,0,1,2.139,2.139v.96H8.862ZM28.722,51.8V82.595H8.862V51.8Zm0,35.071a2.141,2.141,0,0,1-2.139,2.139H11a2.141,2.141,0,0,1-2.139-2.139V84.457h19.86Zm34.907-7.75H43.506l2.774-6.936H60.856Zm-1.514-8.8H30.585V65.148H70.631a15.264,15.264,0,0,0-.241,5.177Zm24,12.136a13.985,13.985,0,1,1,13.985-13.985A13.985,13.985,0,0,1,86.121,82.462Zm-6.64-58.839V21.761h2.146v1.862Zm-5.277,0V21.761h2.145v1.862Zm11.627,42.05a3.781,3.781,0,1,0-2.675-1.106,3.781,3.781,0,0,0,2.675,1.106Zm-1.358-5.139a1.915,1.915,0,1,1-.565,1.359,1.921,1.921,0,0,1,.565-1.359Zm8.465,15.121H91.075a5.244,5.244,0,0,0-10.489,0H78.724a7.107,7.107,0,1,1,14.213,0ZM47.063,59.067h2.52v1.862h-2.52Zm4.939,0h2.52v1.862H52ZM39.611,60.929H37.09V59.067h2.52Zm2.419-1.862h2.52v1.862h-2.52Zm2.13-3.541h18.2a2.8,2.8,0,0,0,2.793-2.793V39.513a2.8,2.8,0,0,0-2.793-2.793H44.16a2.8,2.8,0,0,0-2.793,2.793v13.22a2.8,2.8,0,0,0,2.793,2.793Zm18.2-1.862H44.16a.932.932,0,0,1-.931-.931V49.968L51.318,41.1l7.228,8.132L59.938,48l-3.176-3.573L58.288,43l5.006,5.063v4.673a.932.932,0,0,1-.931.931ZM44.16,38.582h18.2a.932.932,0,0,1,.931.931v5.9l-3.686-3.727a1.982,1.982,0,0,0-2.717-.009l-1.38,1.342-2.8-3.153a2,2,0,0,0-2.878-.005l-6.6,7.325v-7.67a.932.932,0,0,1,.931-.931Zm-31.066,32.1L11.71,69.431l4.228-4.69a1.5,1.5,0,0,1,2.165,0l1.256,1.415,1.918-1.3a1.4,1.4,0,0,1,1.913.111l2.655,2.684-1.324,1.309-2.41-2.437L20.6,67.558l1.269,1.429-1.391,1.237-3.465-3.9Z" transform="translate(-6.25 -10.311)" fill="#fff" stroke="#fff" stroke-width="1.5"/>
</svg>
