<svg xmlns="http://www.w3.org/2000/svg" width="118.818" height="62.65" viewBox="0 0 118.818 62.65">
  <path id="ios-10" d="M11.715,5.679a5.479,5.479,0,0,1-1.687,4.168,6.07,6.07,0,0,1-4.35,1.6A5.466,5.466,0,0,1,1.643,9.8,5.573,5.573,0,0,1,0,5.679,5.373,5.373,0,0,1,1.687,1.6,5.814,5.814,0,0,1,5.855,0a5.806,5.806,0,0,1,4.168,1.6A5.367,5.367,0,0,1,11.715,5.679Zm-1.064,56H1.064V18.546h9.582V61.675ZM74.537,31.149q0,13.579-6.919,22.185-7.451,9.32-20.674,9.317-12.512,0-19.875-9.141-6.841-8.43-6.836-21.3,0-13.13,7.1-21.92,7.628-9.4,20.4-9.405,12.6,0,19.968,9.052Q74.54,18.281,74.537,31.149Zm-10.2.353a28.226,28.226,0,0,0-3.992-15.265q-4.612-7.628-12.956-7.63-8.606,0-13.221,7.807Q30.259,22.8,30.256,31.948A28.357,28.357,0,0,0,34.248,47.3q4.7,7.635,13.044,7.63,8.606,0,13.221-7.807,3.825-6.392,3.82-15.618Zm54.486,13.4a15.926,15.926,0,0,1-5.325,12.421q-5.855,5.237-16.33,5.237-9.673,0-15.53-3.727l2.216-7.983a26.676,26.676,0,0,0,13.843,3.727q5.414,0,8.43-2.442a7.962,7.962,0,0,0,3.016-6.522,8.321,8.321,0,0,0-2.486-6.125Q104.166,37,98.4,34.871q-15.7-5.855-15.707-17.129A15.114,15.114,0,0,1,88.238,5.674q5.546-4.7,14.687-4.7,8.165,0,13.579,2.839l-2.388,7.812A23.572,23.572,0,0,0,102.67,8.871q-5.061,0-7.9,2.486a7.1,7.1,0,0,0-2.4,5.414,7.3,7.3,0,0,0,2.751,5.855q2.4,2.126,8.694,4.614,7.723,3.1,11.357,7.277A15.22,15.22,0,0,1,118.818,44.9Z" fill="#fff"/>
</svg>
