<svg xmlns="http://www.w3.org/2000/svg" width="59.898" height="79.802" viewBox="0 0 59.898 79.802">
  <g id="java" transform="translate(-3 -0.001)">
    <path id="Path_101" data-name="Path 101" d="M18.82,46.221a2.5,2.5,0,0,1-1.388-.423c-.373-.253-9.171-6.256-9.171-14.006,0-8.176,5.87-12.565,10.588-16.092,3.714-2.775,6.921-5.174,6.921-8.652a3.481,3.481,0,0,0-1-2.566A2.5,2.5,0,1,1,27.782.5a8.311,8.311,0,0,1,2.982,6.542c0,5.976-4.536,9.367-8.921,12.648-4.416,3.3-8.585,6.422-8.585,12.1,0,4.223,5.031,8.552,6.968,9.866A2.5,2.5,0,0,1,20.9,45.12,2.523,2.523,0,0,1,18.82,46.221Z" transform="translate(12.248 0)" fill="#fff"/>
    <path id="Path_102" data-name="Path 102" d="M18.4,35.435a2.5,2.5,0,0,1-2.5-2.5,5.154,5.154,0,0,0-1.764-4.256,9.842,9.842,0,0,1-3.011-7.431c0-7.6,13.018-15.114,15.626-16.541a2.5,2.5,0,1,1,2.4,4.376C23.9,11.969,16.121,17.829,16.121,21.253a4.968,4.968,0,0,0,1.717,4.08,10.044,10.044,0,0,1,3.058,7.61A2.5,2.5,0,0,1,18.4,35.435Z" transform="translate(18.923 10.244)" fill="#fff"/>
    <path id="Path_103" data-name="Path 103" d="M19.134,25.455c-5.667,0-10.538-.682-12.951-2.166a4.143,4.143,0,0,1-2.226-3.577c0-4.279,6.961-6.409,12.8-7.444a2.5,2.5,0,0,1,.872,4.915,32.164,32.164,0,0,0-7.82,2.349c5.344,1.777,24.731,1.168,33.961-3.507a2.5,2.5,0,1,1,2.253,4.456C39.805,23.621,28.408,25.455,19.134,25.455Zm3.231,9.264c-8.755,0-10.289-3.99-10.529-4.918A2.5,2.5,0,0,1,16.6,28.31c.2.243,2.13,2.263,10.612,1.025,8.628-1.261,10.858-2.762,11.227-3.055a2.5,2.5,0,0,1,4.372,2.346c-.985,2.449-5.99,4.349-14.878,5.647A38.263,38.263,0,0,1,22.365,34.719Zm-5.694-6.159v0S16.672,28.563,16.672,28.559Zm0-.007v0Zm0,0Zm21.51-1.79v0Zm0-.007Zm0-.007v0Zm0,0Z" transform="translate(2.228 28.46)" fill="#fff"/>
    <path id="Path_104" data-name="Path 104" d="M17.9,29.524c-5.863,0-10.578-.379-12.419-1.111C3.323,27.547,3,26.066,3,25.258c0-3.674,5.1-5.75,8.146-6.659a2.495,2.495,0,0,1,1.434,4.778,19.693,19.693,0,0,0-2.572.992c9.763,1.1,38.87-1.291,42.211-4.808A2.5,2.5,0,1,1,55.839,23C51.606,27.45,31.611,29.524,17.9,29.524Z" transform="translate(0 43.042)" fill="#fff"/>
    <path id="Path_105" data-name="Path 105" d="M19.026,51.745c-6.113,0-10.984-.479-13.051-1.221a2.5,2.5,0,1,1,1.684-4.7c5.414,1.943,35.891,1.5,48.36-6.143a2.5,2.5,0,0,1,2.609,4.259C49.144,49.752,31.5,51.745,19.026,51.745ZM43.7,32.927a2.5,2.5,0,0,1-.992-4.785c4.7-2.036,11.324-6.406,11.324-9.733,0-.8-.226-.962-.313-1.022-1.068-.745-4.362-.153-6.236.536a2.5,2.5,0,1,1-1.727-4.682c1.171-.433,7.211-2.466,10.815.05a5.875,5.875,0,0,1,2.452,5.118c0,7.9-12.868,13.683-14.335,14.315A2.48,2.48,0,0,1,43.7,32.927Z" transform="translate(3.077 28.058)" fill="#fff"/>
  </g>
</svg>
