<svg xmlns="http://www.w3.org/2000/svg" width="116.557" height="79.802" viewBox="0 0 116.557 79.802">
  <path id="laravel" d="M116.087,37.288c-.831-.831-11.5-14.269-13.3-16.487-1.94-2.216-2.771-1.8-4.015-1.663s-14.685,2.494-16.209,2.632c-1.524.277-2.494.831-1.524,2.216.831,1.247,9.7,13.716,11.637,16.625L57.351,49.059,29.362,2.1C28.254.437,27.976-.118,25.483.021S3.455,1.822,2.07,1.822C.685,1.961-.842,2.514.546,5.84S24.1,56.821,24.652,58.207s2.216,3.6,5.957,2.771c3.879-.97,17.179-4.433,24.522-6.373,3.879,6.927,11.637,21.058,13.161,23.136,1.94,2.771,3.325,2.216,6.234,1.385,2.355-.693,36.3-12.88,37.821-13.577s2.494-1.108,1.385-2.632c-.831-1.108-9.7-13.161-14.408-19.4,3.187-.831,14.685-3.879,15.932-4.295,1.385-.418,1.663-1.108.831-1.94ZM51.943,50.446c-.418.139-20.227,4.851-21.2,5.126-1.108.277-1.108.139-1.108-.277C29.362,54.878,6.088,6.671,5.672,6.118,5.4,5.564,5.4,5.01,5.672,5.01s18.7-1.664,19.257-1.664c.693,0,.555.139.831.555,0,0,25.907,44.746,26.322,45.441.555.693.277.97-.139,1.108Zm55.692,10.394c.277.555.693.831-.418,1.108-.969.418-33.388,11.36-34.08,11.637s-1.108.418-1.94-.831-11.36-19.4-11.36-19.4l34.5-9.005c.831-.277,1.108-.418,1.663.418.555.97,11.36,15.655,11.637,16.071Zm2.216-24.383c-.831.139-13.438,3.325-13.438,3.325L86.024,25.647c-.277-.418-.555-.831.139-.97s12.469-2.216,13.022-2.355.97-.277,1.663.693c.693.831,9.559,12.192,9.975,12.607s-.139.693-.97.831Z" transform="translate(0.001 0)" fill="#fff"/>
</svg>
