<svg xmlns="http://www.w3.org/2000/svg" width="87.068" height="79.802" viewBox="0 0 87.068 79.802">
  <g id="react" transform="translate(0 -1.001)">
    <path id="Path_97" data-name="Path 97" d="M43.534,44.173C22.431,44.173,0,37.632,0,25.515S22.431,6.857,43.534,6.857,87.068,13.4,87.068,25.515,64.637,44.173,43.534,44.173Zm0-31.874c-21.8,0-38.092,6.976-38.092,13.216S21.731,38.731,43.534,38.731s38.092-6.976,38.092-13.216S65.337,12.3,43.534,12.3Z" transform="translate(0 15.389)" fill="#fff"/>
    <path id="Path_98" data-name="Path 98" d="M15.366,80.8a9.518,9.518,0,0,1-5.1-1.389h0C-.034,73.021,5.792,49.745,16.5,31.094,25.524,15.364,37.235,3.719,46.33,1.426a10.573,10.573,0,0,1,8.355.969c10.3,6.392,4.469,29.668-6.236,48.319-9.022,15.73-20.733,27.372-29.832,29.668A13.33,13.33,0,0,1,15.366,80.8ZM49.584,6.44a7.825,7.825,0,0,0-1.926.265C41.32,8.3,30.683,17.3,21.214,33.8,10.073,53.217,7.759,71.458,13.128,74.8h0a5.273,5.273,0,0,0,4.154.308c6.341-1.6,16.975-10.6,26.443-27.1C54.87,28.591,57.184,10.35,51.811,7.013A4.161,4.161,0,0,0,49.584,6.44Z" transform="translate(12.837)" fill="#fff"/>
    <path id="Path_99" data-name="Path 99" d="M48.6,80.8a13.33,13.33,0,0,1-3.251-.421c-9.1-2.3-20.809-13.938-29.832-29.668C4.813,32.059-1.014,8.783,9.286,2.395a10.56,10.56,0,0,1,8.351-.969c9.095,2.293,20.806,13.938,29.832,29.668C58.174,49.749,64,73.025,53.7,79.413A9.509,9.509,0,0,1,48.6,80.8ZM14.383,6.44a4.161,4.161,0,0,0-2.227.573C6.779,10.35,9.094,28.591,20.238,48.007c9.469,16.5,20.105,25.5,26.443,27.1a5.274,5.274,0,0,0,4.154-.308h0c5.373-3.338,3.058-21.578-8.086-40.994C33.28,17.3,22.644,8.3,16.306,6.7A7.775,7.775,0,0,0,14.383,6.44Z" transform="translate(10.265 0)" fill="#fff"/>
    <path id="Path_100" data-name="Path 100" d="M18.57,27.639a9.07,9.07,0,1,1,9.07-9.07A9.08,9.08,0,0,1,18.57,27.639Zm0-12.7A3.628,3.628,0,1,0,22.2,18.57,3.631,3.631,0,0,0,18.57,14.942Z" transform="translate(24.964 22.334)" fill="#fff"/>
  </g>
</svg>
