<svg xmlns="http://www.w3.org/2000/svg" width="1038.222" height="873.672" viewBox="0 0 1038.222 873.672">
  <g id="Group_1" data-name="Group 1" transform="translate(-22.091 -106.5)">
    <ellipse id="Ellipse_1" data-name="Ellipse 1" cx="428.317" cy="29.568" rx="428.317" ry="29.568" transform="translate(93.736 808.079)" fill="#e5e5e5"/>
    <ellipse id="Ellipse_2" data-name="Ellipse 2" cx="519.111" cy="67.695" rx="519.111" ry="67.695" transform="translate(22.091 844.781)" fill="#e5e5e5"/>
    <path id="Path_1" data-name="Path 1" d="M872.975,603s41.967-3.074,41.422,47.352c-.491,44.953-33.454,47.394-40.6,47.394-.872,0-1.363-.033-1.363-.033H552.5V681.845H871.885s22.6-4.6,23.436-29.693c1.09-32.767-25.616-32.767-25.616-32.767H552.5V603Z" transform="translate(47.764 44.708)" fill="#3e89fc"/>
    <path id="Path_2" data-name="Path 2" d="M882.88,771.67a1.09,1.09,0,1,1,0,2.18Zm0,11.26a1.09,1.09,0,1,1,0,2.18Zm0,12.721a1.09,1.09,0,1,1,0,2.18Z" transform="translate(77.516 59.9)"/>
    <path id="Path_3" data-name="Path 3" d="M913.649,799.111v15.751H567.318s-25.158-4.229-26.085-27.284c-1.21-30.118,28.5-30.118,28.5-30.118H913.648v15.49H565.323a1.09,1.09,0,1,0,0,2.18H913.649v9.08H586.034a1.09,1.09,0,0,0,0,2.18H913.649v10.541H638.357a1.09,1.09,0,0,0,0,2.18Z" transform="translate(46.746 58.62)" fill="#e5e5e5"/>
    <path id="Path_4" data-name="Path 4" d="M911.746,796.741v1.09H636.454a1.09,1.09,0,0,1,0-2.18H911.746Zm0-12.721v1.09H584.131a1.09,1.09,0,0,1,0-2.18H911.746Zm0-10.17H563.42a1.09,1.09,0,1,1,0-2.18H911.746Z" transform="translate(48.649 59.9)"/>
    <path id="Path_5" data-name="Path 5" d="M869.028,618.03s26.706,0,25.616,32.767c-.839,25.094-23.436,29.693-23.436,29.693H560.02V665.229H856.852a1.09,1.09,0,0,0,0-2.18H560.02V650.088H823.791a1.09,1.09,0,1,0,0-2.18H560.02v-13.92H833.6a1.09,1.09,0,0,0,0-2.18H560.02V618.03H869.028Z" transform="translate(48.441 46.064)" fill="#e5e5e5"/>
    <path id="Path_6" data-name="Path 6" d="M858.56,689.92s9.81,29.66,0,57.3l-97.56.567V689.92Z" transform="translate(66.54 52.538)" fill="#a9d9ff"/>
    <path id="Path_7" data-name="Path 7" d="M856.852,661.911a1.09,1.09,0,0,1,0,2.18H560.02v-2.18ZM833.6,630.67a1.09,1.09,0,0,1,0,2.18H560.02v-2.18Zm-9.81,16.1a1.09,1.09,0,1,1,0,2.18H560.02v-2.18Z" transform="translate(48.441 47.202)"/>
    <path id="Path_8" data-name="Path 8" d="M774.087,689.92v57.871l-121.366.7H615.67V689.92Z" transform="translate(53.453 52.538)" fill="#fff"/>
    <path id="Path_9" data-name="Path 9" d="M769.212,614.933v.044H555.562v11.991H518.5V470H769.212ZM709.8,555.384V522.322H665.472v33.061ZM614.97,574.765V510.692H541.391v64.073Z" transform="translate(44.702 32.734)" fill="#a9d9ff"/>
    <path id="Path_10" data-name="Path 10" d="M653.33,518h44.332v33.061H653.33Z" transform="translate(56.844 37.056)" fill="#fff"/>
    <path id="Path_11" data-name="Path 11" d="M624.2,748.456v.033H567.916a52.37,52.37,0,0,0-9.734.6l-32.821.185s-9.81-28.668,0-59.353H624.2Z" transform="translate(44.928 52.538)" fill="#a9d9ff"/>
    <path id="Path_12" data-name="Path 12" d="M539.5,507.33h73.578V571.4H539.5Z" transform="translate(46.594 36.095)" fill="#fff"/>
    <path id="Path_13" data-name="Path 13" d="M560.11,663v1.09a1.09,1.09,0,1,1,0-2.18Zm0-15.141v1.09a1.09,1.09,0,1,1,0-2.18Zm0-16.1v1.09a1.09,1.09,0,1,1,0-2.18Z" transform="translate(48.351 47.202)"/>
    <path id="Path_14" data-name="Path 14" d="M542.985,788.822c.927,23.055,26.085,27.284,26.085,27.284H924.525v14.585H568.459s-46.1,2.823-46.709-43.515c-.425-32.712,22.717-40.931,36.364-42.926l103.064-.6H924.525V758.7H571.49s-29.715,0-28.5,30.118Z" transform="translate(44.995 57.376)" fill="#295fc5"/>
    <path id="Path_15" data-name="Path 15" d="M391.7,418V557.167H169V418ZM349.9,484.493V454.4H296.9v30.1Zm-89.341,14.53V469.963H238.033V448.521H192.251v26.161h22.891v24.341Z" transform="translate(13.229 28.051)" fill="#e5e5e5"/>
    <path id="Path_16" data-name="Path 16" d="M286.33,451.39h53.009v30.1H286.33Z" transform="translate(23.795 31.058)" fill="#fff"/>
    <path id="Path_17" data-name="Path 17" d="M281.13,728l-9.614,72.314H169.781L160.33,728h21.343c.12.262.185.414.185.425a1.088,1.088,0,0,0,2.093-.425h30.881v.033a1.087,1.087,0,0,0,1.09,1.057h.033a1.087,1.087,0,0,0,1.057-1.09h25.071v.011a1.09,1.09,0,0,0,1.09,1.079h.011a1.091,1.091,0,0,0,1.079-1.09H281.13ZM261.345,465.67v29.061H215.923V470.39h22.891v-4.72Z" transform="translate(12.449 32.344)" fill="#a9d9ff"/>
    <path id="Path_18" data-name="Path 18" d="M248.963,665.857c-.131.24-.262.469-.392.707a12.558,12.558,0,0,1-.567-1.232c-.109-.283-.207-.577-.305-.872l-.349-.022c0-.056.011-.11.011-.174a79.218,79.218,0,0,1,35.47-33.487,1.088,1.088,0,0,1,.937,1.963A77.193,77.193,0,0,0,248.963,665.857Z" transform="translate(20.285 47.202)"/>
    <path id="Path_19" data-name="Path 19" d="M247.625,667.727c.174-4.383-2.551-9.516-2.943-13.965-.578-6.517-.36-15.292,2.082-21.375C251.059,621.7,262.33,612.08,274.1,611.96c3.728-.033,8.437.861,12.012.022,5.832-1.373,6.519-6.615,8.056-11.2,3.641-10.923,21.4-11.075,27.208-2.169,4.066,6.235,6.181,14.814,4.262,22.172-1.722,6.607-8.306,16.417-14,20.253-7.358,4.96-16.939,2.867-24,8.7-3.227,2.659-5.145,8.284-4.447,12.448.839,4.927,4.687,8.425,5.1,13.724.85,11.15-12.416,12.176-20.8,10.083-4.982-1.244-7.63-4.611-11.173-7.9-3.074-2.856-5.81-4.818-7.489-8.057.131-.24.262-.469.392-.707A77.185,77.185,0,0,1,284.033,636.2a1.088,1.088,0,1,0-.937-1.963,79.216,79.216,0,0,0-35.47,33.486Z" transform="translate(20.021 43.741)" fill="#a9d9ff"/>
    <path id="Path_20" data-name="Path 20" d="M235.33,710.368c0-.436-.109-24.973,12.8-48.333.1-.185.207-.371.316-.545,0,.065-.011.119-.011.174l.349.022c.1.3.2.589.305.872a12.67,12.67,0,0,0,.567,1.232c-12.285,22.729-12.143,46.327-12.143,46.568v.011h-2.18Z" transform="translate(19.203 49.978)"/>
    <path id="Path_21" data-name="Path 21" d="M236.42,706.33h1.09a1.091,1.091,0,0,1-1.079,1.09h-.011a1.09,1.09,0,0,1-1.09-1.079v-.011Z" transform="translate(19.203 54.016)"/>
    <path id="Path_22" data-name="Path 22" d="M239.357,639.982c7.118,5.156,7.968,15.511,3.357,22.967-5.091,8.23-17.779,18.378-28.156,15.348-.011-.11-.033-.218-.055-.327-5.254-29.867-16.841-69.23-42.109-87.129a1.095,1.095,0,1,0-1.264,1.788c24.592,17.408,35.972,56.018,41.193,85.449-13.048-.828-26.979-4.251-39.111-8.677-7.739-2.823-17.517-9.08-16.721-18.52.447-5.3,4.393-8.622,8.372-11.544,3.063-2.256,6.322-4.8,5.091-9.178-1.254-4.458-6.715-4.807-10.563-6.442-5.461-2.322-11.086-5.232-14.8-9.9-9.538-12-8.273-26.956,4.284-35.983,11.086-7.957,24.526-9.015,37.062-4.295,11.533,4.36,26.194,14.542,26.161,27.721-.022,10.007-4.36,17.8,4.077,25.714,6.769,6.344,15.817,7.663,23.185,13Z" transform="translate(10.466 41.804)" fill="#3e89fc"/>
    <path id="Path_23" data-name="Path 23" d="M236.112,467.441v4.72H190.33V446h45.782Z" transform="translate(15.15 30.573)" fill="#fff"/>
    <path id="Path_24" data-name="Path 24" d="M214.159,709.673h1.09a1.087,1.087,0,0,1-1.057,1.09h-.033a1.087,1.087,0,0,1-1.09-1.057v-.033Zm-1.09,0a307.671,307.671,0,0,0-4.447-40.2c-.011-.087-.033-.174-.044-.262.371.033.741.055,1.112.076.283.032.556.044.839.055.1.033.185.055.283.087a306.9,306.9,0,0,1,4.437,40.212v.033h-2.18Zm-31.971,0h1.09a1.09,1.09,0,0,1-2.093.425c0-.011-.065-.162-.185-.425Z" transform="translate(14.212 50.673)"/>
    <path id="Path_25" data-name="Path 25" d="M168.884,590.984a1.095,1.095,0,1,1,1.264-1.788c25.267,17.9,36.855,57.26,42.109,87.129.022.109.044.217.055.327-.1-.033-.185-.054-.283-.087-.283-.011-.556-.023-.839-.054-.371-.023-.741-.044-1.112-.076-5.221-29.432-16.6-68.042-41.193-85.45Zm-5.537,102.672a6.507,6.507,0,0,0,.621-.893c.011.011.033.022.044.032l.218.164c.185.153.382.294.567.458,13.528,10.693,18.6,22.564,18.8,23.055a.991.991,0,0,1,.087.425h-2.278a64.955,64.955,0,0,0-18-21.8.991.991,0,0,0-.142-.109c.142-.087.283-.174.436-.251l.382-.491c-.24-.207-.491-.392-.741-.589Z" transform="translate(12.713 43.45)"/>
    <path id="Path_26" data-name="Path 26" d="M168.827,689.449l.218.164c.12.1.24.185.382.305-3.968,2.235-6.344,4.011-11.195,5.1-6.093,1.373-12.3,1.481-18.542,1.548-10.192.109-18.651-2.9-27.24-7.914-7.9-4.611-15.828-12.121-17.354-21.845-1.744-11.064,8.884-23.938,20.929-21.137,3.368.786,4.033,4.4,5.6,6.933,1.788,2.889,3.455,3.652,6.9,4,8.982.894,16.765-6.028,26.074-2.562,8.2,3.041,14.367,11.161,16.078,19.565.785,3.848,1.657,10.313-.556,14.085a76.779,76.779,0,0,0-34.969-14.728,1.093,1.093,0,0,0-.349,2.158,74.415,74.415,0,0,1,34.021,14.326Z" transform="translate(6.557 48.518)" fill="#295fc5"/>
    <path id="Path_27" data-name="Path 27" d="M165.824,687.326l-.218-.164a74.4,74.4,0,0,0-34.021-14.323,1.093,1.093,0,0,1,.349-2.158A76.779,76.779,0,0,1,166.9,685.409a6.51,6.51,0,0,1-.621.893c.251.2.5.383.741.589l-.382.491c-.153.076-.294.164-.436.251-.142-.12-.262-.207-.382-.305Z" transform="translate(9.777 50.804)"/>
    <path id="Path_28" data-name="Path 28" d="M787.818,300.624l-4.36,19.621-74.124-19.621ZM748.87,197.069,709.083,217.78,734.7,188.6ZM712.353,409.259l-10.9,11.816-29.976-52.05Zm-27.8-289.038L641.5,172l20.711-60.5Z" transform="translate(55.779 0.45)" fill="#e22953"/>
    <path id="Path_29" data-name="Path 29" d="M578.953,341.42v.131a1.088,1.088,0,0,0,2.169.109q8.617,1,15.958,2.235a1.072,1.072,0,0,0-.022.185,1.086,1.086,0,0,0,2.157.185v-.011a217.867,217.867,0,0,1,35.252,8.8c3.39,1.21,5.08,1.984,5.08,1.984l-6.824,15.838c-1.156-.338-2.311-.676-3.466-.992-40.038-11.173-77.275-11.511-89.341-11.271-2.627.055-4.066.131-4.066.131l-1.232-19.621q3.892,0,7.619.065c13.692.229,25.923,1.068,36.714,2.235Z" transform="translate(46.154 20.948)" fill="#a9d9ff"/>
    <path id="Path_30" data-name="Path 30" d="M606.43,275.79a46.169,46.169,0,0,1,4.786-10.116c2.267-3.216,6.4-5.134,11.063-5.134,4.066,0,7.434,1.493,8,3.575.557,2.017-1.623,4.665-5.983,7.249C619.5,274.209,613.493,275.7,606.43,275.79Z" transform="translate(52.621 13.872)" fill="#ffc962"/>
    <path id="Path_31" data-name="Path 31" d="M611.343,265.765a46.217,46.217,0,0,0-4.786,10.116c7.064-.087,13.07-1.581,17.867-4.426,4.36-2.583,6.54-5.232,5.983-7.249-.567-2.082-3.934-3.575-8-3.575C617.742,260.631,613.611,262.549,611.343,265.765Zm-5.973,10.181a49.383,49.383,0,0,1,5.08-10.813c8-11.358,32.887-3.641,14.53,7.26-5.428,3.216-12.013,4.556-18.88,4.589a.976.976,0,0,0-.087-.436,1.037,1.037,0,0,0-.1-.185.664.664,0,0,0-.142-.164.823.823,0,0,0-.153-.12.909.909,0,0,0-.131-.087c-.044-.011-.076-.033-.12-.044Zm.632,1.472c-.076.218-.153.436-.218.654-.26,0-.512-.011-.774-.011a1.071,1.071,0,0,0,.992-.643Z" transform="translate(52.493 13.781)"/>
    <path id="Path_32" data-name="Path 32" d="M605.84,274.97a1.032,1.032,0,0,1,.1.185A.6.6,0,0,0,605.84,274.97Z" transform="translate(52.568 15.171)"/>
    <path id="Path_33" data-name="Path 33" d="M605.915,275a.606.606,0,0,1,.1.185.962.962,0,0,1,.087.436c-.36,0-.73,0-1.09-.011.12-.349.241-.687.36-1.025.044.011.076.033.12.044a.546.546,0,0,1,.131.087.825.825,0,0,1,.153.12.666.666,0,0,1,.142.164Z" transform="translate(52.493 15.137)"/>
    <path id="Path_34" data-name="Path 34" d="M604.32,275.948c1.875-5.243,3.608-8.96,5.3-11.358,2.671-3.793,7.478-6.05,12.852-6.05,5.2,0,9.255,2.071,10.106,5.178.6,2.18-.131,5.636-6.976,9.7-5.3,3.139-11.924,4.742-19.686,4.742h-.067c.067-.218.142-.436.218-.654a.968.968,0,0,0,.1-.436c6.867-.033,13.451-1.373,18.88-4.589,18.356-10.9-6.529-18.618-14.53-7.26a49.377,49.377,0,0,0-5.08,10.813.654.654,0,0,0-.262-.055.039.039,0,0,0-.032-.011h-.077c-.25,0-.49-.011-.74-.022Z" transform="translate(52.431 13.691)"/>
    <path id="Path_35" data-name="Path 35" d="M614.071,285.033c7.761,0,14.389-1.6,19.686-4.742,6.846-4.066,7.576-7.521,6.976-9.7-.85-3.107-4.905-5.178-10.106-5.178-5.374,0-10.181,2.256-12.852,6.05-1.69,2.4-3.423,6.115-5.3,11.358a74.453,74.453,0,0,1-25.442-5.69c-.305-8.611-.807-13.822-1.493-15.926-1.134-3.4-4.557-5.614-8.72-5.614a9,9,0,0,0-7.129,3.128,7.651,7.651,0,0,0-1.134,6.889c1.036,4.044,7.271,9,16.351,12.983.533,16.067.316,38.272.25,43.657l-3.107-.371a1.082,1.082,0,0,0-.85.262,1.068,1.068,0,0,0-.371.818v21.638a98.57,98.57,0,0,1-42.054-23.611c-16.373-15.751-25.987-36.887-25.006-59.735,1.984-45.848,45.946-81.176,98.2-78.92s93,41.258,91.019,87.1c-1.375,31.753-22.88,58.459-53.337,71.126a104.707,104.707,0,0,1-44.854,7.794c-.545-.022-1.09-.054-1.635-.087l4.545-22.172a1.107,1.107,0,0,0-.185-.861,1.075,1.075,0,0,0-.752-.436l-2.8-.327c.992-4.971,5.112-25.115,10.028-39.427h.065Z" transform="translate(44.271 6.819)" fill="#ffc962"/>
    <path id="Path_36" data-name="Path 36" d="M605.8,274.846Zm-.153-.12a.547.547,0,0,0-.131-.087A.91.91,0,0,1,605.649,274.726Zm-.131-.087c-.044-.011-.076-.033-.12-.044C605.442,274.606,605.475,274.628,605.518,274.639Zm-.382-.1a.039.039,0,0,0-.032-.011A.039.039,0,0,1,605.137,274.541Zm-.1,1.079c.36.011.73.011,1.09.011a.968.968,0,0,1-.1.436,1.071,1.071,0,0,1-.992.643h-.011a.888.888,0,0,1-.338-.065C604.8,276.3,604.919,275.958,605.039,275.62Z" transform="translate(52.464 15.131)"/>
    <path id="Path_37" data-name="Path 37" d="M605.089,274.53h.077a.037.037,0,0,1,.032.011.654.654,0,0,1,.262.055c-.119.338-.24.676-.36,1.025-.36,0-.719-.011-1.09-.033a.877.877,0,0,1,.066-.327l.065-.164a1.1,1.1,0,0,1,.947-.567Z" transform="translate(52.403 15.131)"/>
    <path id="Path_38" data-name="Path 38" d="M605.093,274.532a1.105,1.105,0,0,0-.948.567c.066-.2.131-.4.207-.589.251.011.491.022.741.022Zm0,2.18c-.12,0-.24,0-.36-.011.011-.022.011-.044.023-.055A.879.879,0,0,0,605.093,276.712Zm.011-1.09c-.119.338-.24.676-.348,1.025a1,1,0,0,1-.545-.4,1.029,1.029,0,0,1-.2-.654C604.384,275.611,604.744,275.622,605.1,275.622Zm-1.025-.36a.877.877,0,0,0-.066.327h-.044c.034-.109.077-.218.11-.327Z" transform="translate(52.399 15.13)"/>
    <path id="Path_39" data-name="Path 39" d="M604.241,276.154a1,1,0,0,0,.545.4c-.012.011-.012.033-.023.055-.371,0-.751-.011-1.134-.033.12-.371.24-.73.371-1.079h.044a1.036,1.036,0,0,0,.2.654Z" transform="translate(52.369 15.219)"/>
    <path id="Path_40" data-name="Path 40" d="M605.663,276.94c-4.927,14.552-9,34.587-9.919,39.22l-14.466-1.7c.055-4.873.283-26.717-.218-42.97A75.679,75.679,0,0,0,605.663,276.94Zm-8.557,63.278c.545.033,1.09.065,1.635.087a104.708,104.708,0,0,0,44.854-7.794v.011l-13.31,26.619a217.838,217.838,0,0,0-35.252-8.8l2.072-10.127Z" transform="translate(50.336 14.858)" fill="#ffc962"/>
    <path id="Path_41" data-name="Path 41" d="M600.416,314.334l-4.545,22.172-1.09-.065,4.567-22.324-2.867-.338c.023-.153.1-.512.2-1.068l2.8.327a1.075,1.075,0,0,1,.752.436,1.107,1.107,0,0,1,.185.861Z" transform="translate(51.572 18.57)"/>
    <path id="Path_42" data-name="Path 42" d="M599.614,315.087l-4.36,21.289a104.87,104.87,0,0,1-17.963-2.943V312.46l3,.349,16.678,1.962Z" transform="translate(49.997 18.547)" fill="#ffc962"/>
    <path id="Path_43" data-name="Path 43" d="M602.26,425.672c3.543.545,2.725,8.993-8.175,18.531s-30.227,12.83-37.738,15.817c-4.566-3.717-10.966-8.284-14.727-10.922,0,0,11.587-31.328,14.857-28.33s2.725,15.806,2.725,15.806,39.514-11.446,43.057-10.9Z" transform="translate(46.784 28.282)" fill="#fda181"/>
    <path id="Path_44" data-name="Path 44" d="M606.874,276.542c-4.916,14.312-9.036,34.457-10.029,39.427l-1.078-.131c.948-4.8,5.024-24.81,9.963-39.318.12.011.24.011.36.011h.011c.261,0,.511.011.773.011Zm-13.026,63.07,4.36-21.289-2.649-.316V318a1.084,1.084,0,0,0,1.068-.883c0-.011.011-.033.022-.076l2.867.338L594.95,339.7C594.579,339.678,594.208,339.645,593.848,339.612Zm2.191.153-2.071,10.127c-.349-.065-.707-.12-1.067-.185L594.95,339.7Z" transform="translate(51.402 15.311)"/>
    <path id="Path_45" data-name="Path 45" d="M594.53,315.71c.916-4.633,4.992-24.668,9.919-39.22.383.022.763.033,1.134.033-4.938,14.509-9.015,34.522-9.963,39.318l-1.09-.131Zm2.169.262c-.1.556-.173.916-.2,1.068l-1.09-.131s.076-.371.207-1.068Z" transform="translate(51.549 15.308)"/>
    <path id="Path_46" data-name="Path 46" d="M594.361,313.462c0-.033.065-.371.185-.992l1.09.131c-.131.7-.207,1.068-.207,1.068l-1.079-.131C594.35,313.516,594.361,313.484,594.361,313.462Z" transform="translate(51.533 18.548)"/>
    <path id="Path_47" data-name="Path 47" d="M596.4,314.878a1.077,1.077,0,0,1-.873-1.2l1.079.131,1.09.131c-.011.044-.022.065-.022.076a1.086,1.086,0,0,1-1.068.883,1.5,1.5,0,0,1-.206-.022Zm-1.5,21.638c.36.033.731.065,1.1.087l-2.049,10.007c-.349-.054-.709-.12-1.068-.174v-.044l2.016-9.876ZM581.262,310.91l14.466,1.7c-.12.621-.185.959-.185.992s-.012.054-.012.076l-14.289-1.668a.408.408,0,0,0,.011-.12c0-.033,0-.371.01-.981Z" transform="translate(50.352 18.407)"/>
    <path id="Path_48" data-name="Path 48" d="M577.291,331.7a104.909,104.909,0,0,0,17.963,2.943l-2.017,9.876v.044q-7.341-1.226-15.958-2.235a.408.408,0,0,0,.011-.12V331.7Z" transform="translate(49.996 20.28)" fill="#ffc962"/>
    <path id="Path_49" data-name="Path 49" d="M593.974,350.357c.36.065.718.12,1.067.185v.011a1.086,1.086,0,0,1-2.157-.185,1.073,1.073,0,0,1,.022-.185C593.265,350.237,593.625,350.3,593.974,350.357ZM580.98,269.29a74.453,74.453,0,0,0,25.442,5.69c-.076.185-.142.392-.207.589l-.065.164c-.033.109-.076.218-.11.327a75.029,75.029,0,0,1-25-5.57c-.012-.153-.012-.305-.023-.458V270Z" transform="translate(50.329 14.66)"/>
    <path id="Path_50" data-name="Path 50" d="M581.1,270.39a75.041,75.041,0,0,0,25,5.57c-.131.349-.25.709-.371,1.079a75.666,75.666,0,0,1-24.6-5.45l-.032-1.2Zm.24,45.15a.408.408,0,0,1-.011.12l-1.079-.131s.011-.392.011-1.1l1.09.131c-.011.61-.011.948-.011.981Z" transform="translate(50.263 14.759)"/>
    <path id="Path_51" data-name="Path 51" d="M580.279,314.367c.066-5.123.3-27.044-.229-43.3.371.153.742.305,1.1.458.5,16.253.273,38.1.218,42.97l-1.09-.131Z" transform="translate(50.245 14.82)"/>
    <path id="Path_52" data-name="Path 52" d="M581.152,271.593c-.359-.153-.73-.305-1.1-.458,0-.044-.011-.076-.011-.109a1.149,1.149,0,0,0,.589-.2,1.031,1.031,0,0,0,.382-.48.332.332,0,0,0,.11.044Z" transform="translate(50.244 14.755)"/>
    <path id="Path_53" data-name="Path 53" d="M581.1,270.468a1.065,1.065,0,0,0,.087-.414c.011.153.011.305.023.458A.321.321,0,0,1,581.1,270.468Zm.055-1.155.032.709a1.135,1.135,0,0,0-.707-.981.067.067,0,0,1,.044.011C580.73,269.138,580.948,269.225,581.156,269.313Zm-1.057.741c.327.142.665.283,1,.414a1.018,1.018,0,0,1-.381.48,1.153,1.153,0,0,1-.589.2Zm.272,44.5c0,.708-.011,1.1-.011,1.1l-1.09-.131c0-.174.011-.545.011-1.09Zm16.438,4.131-16.678-1.962a1.339,1.339,0,0,0,.218.022h.011a1.085,1.085,0,0,0,1.079-.959l14.289,1.668a1.077,1.077,0,0,0,.873,1.2,1.471,1.471,0,0,0,.206.022v.011Zm-17.528-4.251c.066-5.385.283-27.589-.25-43.657.206.1.425.185.643.283.153.065.316.131.469.2.523,16.253.3,38.174.229,43.3l-1.091-.12Z" transform="translate(50.153 14.637)"/>
    <path id="Path_54" data-name="Path 54" d="M580,268.97a.955.955,0,0,1,.426.076,1.131,1.131,0,0,1,.707.981v.033a1.065,1.065,0,0,1-.087.414c-.338-.131-.676-.272-1-.414C580.034,269.69,580.023,269.33,580,268.97Zm.087,2.289c-.153-.065-.316-.131-.469-.2a1.141,1.141,0,0,0,.425.087h.033c0,.033.011.065.011.109Z" transform="translate(50.206 14.631)"/>
    <path id="Path_55" data-name="Path 55" d="M580.093,270.06c-.338-.142-.664-.294-1-.436a1.09,1.09,0,0,1,.959-.654C580.071,269.33,580.082,269.689,580.093,270.06Z" transform="translate(50.159 14.631)"/>
    <path id="Path_56" data-name="Path 56" d="M579.838,269a.7.7,0,0,0-.2.065A1.381,1.381,0,0,1,579.838,269Zm-.164,2.06a1.072,1.072,0,0,1-.665-.959,1.012,1.012,0,0,1,.023-.262.631.631,0,0,1,.065-.207v-.011c.339.142.665.294,1,.436.011.36.023.719.033,1.09H580.1A1.142,1.142,0,0,1,579.675,271.06Zm-.4,44.463,1.09.131,1.079.131a1.086,1.086,0,0,1-1.079.959h-.011a1.088,1.088,0,0,1-1.079-1.1Z" transform="translate(50.152 14.633)"/>
    <path id="Path_57" data-name="Path 57" d="M579.01,270.049a1.075,1.075,0,0,0,.665.959c-.218-.1-.436-.185-.643-.283-.011-.229-.011-.458-.022-.676ZM579.1,269.58Z" transform="translate(50.152 14.686)"/>
    <path id="Path_58" data-name="Path 58" d="M580.14,269.93c-7.74-3.554-13.342-7.914-14.149-11.108a5.585,5.585,0,0,1,.742-5,6.815,6.815,0,0,1,5.407-2.289c2.43,0,5.636,1.079,6.649,4.12.413,1.254.969,4.764,1.351,14.28Z" transform="translate(48.956 13.06)" fill="#ffc962"/>
    <path id="Path_59" data-name="Path 59" d="M576.29,311.33l3.227.382v.12a1.088,1.088,0,0,0,.861,1.079l-3-.349v20.973c-.371-.087-.73-.174-1.09-.273V311.33Z" transform="translate(49.907 18.445)"/>
    <path id="Path_60" data-name="Path 60" d="M576.38,344.132V333.352c.36.1.719.185,1.09.273v10.508a.41.41,0,0,1-.011.12C577.1,344.208,576.74,344.176,576.38,344.132Zm.131-33.792,3.107.371c0,.545-.011.916-.011,1.09l-3.227-.382v21.932l-1.09-.294V311.42a1.069,1.069,0,0,1,.371-.818A1.083,1.083,0,0,1,576.511,310.341Z" transform="translate(49.817 18.356)"/>
    <path id="Path_61" data-name="Path 61" d="M576.38,331.474v10.781c-.36-.044-.73-.076-1.09-.12V331.18l1.09.294Z" transform="translate(49.816 20.233)"/>
    <path id="Path_62" data-name="Path 62" d="M576.38,341.35c.36.044.719.076,1.079.12a1.088,1.088,0,0,1-2.169-.109v-.131C575.65,341.274,576.02,341.306,576.38,341.35Z" transform="translate(49.816 21.138)"/>
    <path id="Path_63" data-name="Path 63" d="M578.764,333.131v10.955c-10.792-1.166-23.022-2.006-36.713-2.235L536.71,309.52A98.577,98.577,0,0,0,578.764,333.131Z" transform="translate(46.342 18.282)" fill="#ffc962"/>
    <path id="Path_64" data-name="Path 64" d="M573.624,106.5l-2.4,49.6L560.02,106.5Z" transform="translate(48.441)" fill="#e22953"/>
    <path id="Path_65" data-name="Path 65" d="M545.332,373.1c10.759.294,41.433,1.788,72.9,9.451l-.229.959-2.725,14.007c-42.73-8.175-69.763-9.265-69.763-9.265L545.31,373.9Z" transform="translate(47.117 24.008)" fill="#295fc5"/>
    <path id="Path_66" data-name="Path 66" d="M578.879,255.74c-1.014-3.041-4.219-4.12-6.649-4.12a6.815,6.815,0,0,0-5.407,2.289,5.589,5.589,0,0,0-.742,5c.807,3.194,6.41,7.554,14.149,11.108-.38-9.516-.936-13.026-1.351-14.28Zm-13.855,3.445c-2.54-10.018,12.35-11.413,14.89-3.783.707,2.137,1.155,7.957,1.428,15.228a.762.762,0,0,0-.218.033,1.428,1.428,0,0,0-.2.065,1.09,1.09,0,0,0-.545.556c-8.35-3.728-14.41-8.372-15.359-12.1Z" transform="translate(48.866 12.97)"/>
    <path id="Path_67" data-name="Path 67" d="M580,255.493c-2.54-7.63-17.43-6.235-14.89,3.783.948,3.728,7.009,8.372,15.359,12.1v.011a.758.758,0,0,0-.065.207,1.012,1.012,0,0,0-.023.262c.011.218.011.447.023.676-9.08-3.979-15.315-8.938-16.351-12.983a7.651,7.651,0,0,1,1.134-6.889,9,9,0,0,1,7.129-3.128c4.163,0,7.587,2.213,8.72,5.614.687,2.1,1.188,7.314,1.493,15.926-.207-.087-.426-.174-.632-.262a.067.067,0,0,0-.044-.011.955.955,0,0,0-.426-.076c-.271-7.271-.718-13.092-1.427-15.228Z" transform="translate(48.776 12.88)"/>
    <path id="Path_68" data-name="Path 68" d="M542.832,446.919c3.761,2.638,10.159,7.205,14.727,10.922,2.748,2.235,4.84,4.153,5.309,5.167.36.785-2.987,3.9-8.524,8.306-8.207-8.415-26.183-19.327-26.183-19.327,6.8-4.24,11.544-7.238,11.544-7.238s1.232.839,3.128,2.169Z" transform="translate(45.572 30.46)" fill="#a9d9ff"/>
    <path id="Path_69" data-name="Path 69" d="M628.341,370.084l-5.723,14.879c-1.286-.338-2.573-.654-3.859-.959-31.47-7.663-62.144-9.156-72.9-9.451-2.605-.065-4.044-.065-4.044-.065L539.5,358.366,539.48,357c12.066-.24,49.3.1,89.341,11.271Z" transform="translate(46.592 22.554)" fill="#3e89fc"/>
    <path id="Path_70" data-name="Path 70" d="M514.886,149.14l9.691,44.54-27.905-39.634Zm-5.57,185.7-39.787,30.794-7.63-14.2ZM489.15,268.315l-62.34-8.655,4.567-19.654Z" transform="translate(36.446 3.84)" fill="#e22953"/>
    <path id="Path_71" data-name="Path 71" d="M488.613,517.168c-9.265,1.908-37.879-17.441-37.879-17.441l-.839-.262a33.784,33.784,0,0,0,1.384-6.006c.273-3.194-3.063-12.416-6.4-20.689,10.65,15.9,28.014,37.792,46.022,43.569A11.862,11.862,0,0,1,488.613,517.168Z" transform="translate(38.073 32.983)" fill="#295fc5"/>
    <path id="Path_72" data-name="Path 72" d="M429.473,864.29a60.318,60.318,0,0,0,31.241.011l.578,5.4s31.884,6.54,38.152,8.742,5.178,14.149,5.178,14.149L427.5,887.955Z" transform="translate(36.508 68.24)" fill="#1e1950"/>
    <path id="Path_73" data-name="Path 73" d="M422.373,606.384v-.012c4.764-.707,9.505-1.612,14.127-2.747C476.559,593.814,478.195,590,478.195,590s1,115.36-8.808,176.948c0,0-1.548,111.1-5.363,121.454,0,0-.687.251-1.94.6a60.293,60.293,0,0,1-31.241-.011c-.654-.174-1.308-.371-1.973-.589,0,0,.36-103.282,1.995-117.453s-17.9-125.083-17.9-125.083l-.676-.174c5.864-22.814,10.083-39.306,10.083-39.306Z" transform="translate(35.138 43.54)" fill="#403882"/>
    <path id="Path_74" data-name="Path 74" d="M420.279,404.25s29.911,5.439,12.863,29.9c-5.8.305-14.312,1.046-20.755,1.646-5.178.491-9,.883-9,.883l-2.976-11.718-1.657-6.54s20.711-9.265,21.529-14.171Z" transform="translate(33.919 26.813)" fill="#1e1950"/>
    <path id="Path_75" data-name="Path 75" d="M418.448,453.157v5.81l-18.5-11.707Z" transform="translate(34.027 30.686)" fill="#295fc5"/>
    <path id="Path_76" data-name="Path 76" d="M412.634,433.19l6.17,21.234-18.5-5.9L396,447.154l7.63-13.081S407.456,433.681,412.634,433.19Z" transform="translate(33.671 29.419)" fill="#a9d9ff"/>
    <path id="Path_77" data-name="Path 77" d="M395.726,385.771c1-.218,1.482-1.951,1.057-3.859s-1.57-3.292-2.573-3.074-1.482,1.951-1.068,3.859S394.723,385.989,395.726,385.771Zm11.14-6.562c.425,1.918,1.581,3.292,2.583,3.074s1.482-1.951,1.057-3.87-1.57-3.292-2.573-3.063-1.482,1.94-1.068,3.859Zm-2.2,6.606c.131.545,2.583,10.541,4.709,13.985l4.72-6C410.049,392.039,404.981,386.174,404.665,385.815ZM362.5,398.982c.545-9.265,9.265-8.175,9.265-8.175l.382-7.085a56.662,56.662,0,0,0,14.116-13.767c.392-.109.752-.207,1.09-.283a18.984,18.984,0,0,1,5.461-.011,1.093,1.093,0,1,0,.458-2.137,19.269,19.269,0,0,0-5.385-.109c3.259-5.646,5.069-12.4,2.682-19.665,0,0,14.825.262,20.21,15.413a22.955,22.955,0,0,0-5.723,1.875,1.091,1.091,0,0,0,.5,2.06,1.169,1.169,0,0,0,.5-.12,20.721,20.721,0,0,1,5.254-1.711.736.736,0,0,1,.153-.022c1.155,3.51,2.431,7.4,3.706,11.369,4.469,13.964,8.993,29.017,8.372,32.723-.818,4.905-21.529,14.171-21.529,14.171s-6,2.017-13.9-1.232c0,0,4.84,6.617,15.555,7.772l2.976,11.718-7.63,13.081L378.58,448.58c8.72-20.983-3-42.24-3-42.24S361.956,408.248,362.5,398.982Zm46.185,14.258c3.772-2.54,4.142-8.535,4.142-8.535s-8.906,2.91-16.9,2.18C395.933,406.885,404.915,415.791,408.687,413.24Z" transform="translate(30.653 21.725)" fill="#fda181"/>
    <path id="Path_78" data-name="Path 78" d="M410.609,390.66l-4.72,6c-2.126-3.445-4.578-13.44-4.709-13.985C401.5,383.03,406.565,388.894,410.609,390.66Z" transform="translate(34.138 24.87)" fill="#f77556"/>
    <path id="Path_79" data-name="Path 79" d="M410.066,400s-.371,6-4.142,8.535-12.754-6.355-12.754-6.355C401.16,402.91,410.066,400,410.066,400Z" transform="translate(33.416 26.43)" fill="#fff"/>
    <path id="Path_80" data-name="Path 80" d="M411.608,363.847a14.877,14.877,0,0,0-4.131.153c-.109-.349-.229-.7-.338-1.046-.044-.12-.076-.251-.12-.371-.076-.229-.153-.447-.229-.665l.153-.033a16.544,16.544,0,0,1,4.927-.2,1.087,1.087,0,1,1-.262,2.158Z" transform="translate(34.643 22.971)"/>
    <path id="Path_81" data-name="Path 81" d="M405.8,380c-1,.218-2.158-1.155-2.583-3.074s.065-3.641,1.068-3.859,2.158,1.155,2.573,3.063-.055,3.652-1.057,3.87Z" transform="translate(34.307 24.003)" fill="#231f20"/>
    <path id="Path_82" data-name="Path 82" d="M407.846,363.994a20.72,20.72,0,0,0-5.254,1.711,1.169,1.169,0,0,1-.5.12,1.091,1.091,0,0,1-.5-2.06,22.954,22.954,0,0,1,5.723-1.875c.076.218.153.436.229.665.044.12.076.251.12.371.109.349.229.7.338,1.046a.737.737,0,0,0-.153.022Z" transform="translate(34.121 22.998)"/>
    <path id="Path_83" data-name="Path 83" d="M399.9,417.352l1.657,6.54C390.84,422.737,386,416.12,386,416.12,393.9,419.368,399.9,417.352,399.9,417.352Z" transform="translate(32.771 27.882)" fill="#f77556"/>
    <path id="Path_84" data-name="Path 84" d="M398.044,446.518,387.5,463.228l-10.639-16.7-.011-.011-3.554-5.57v-.011l4.306-.687Z" transform="translate(31.627 30.055)" fill="#a9d9ff"/>
    <path id="Path_85" data-name="Path 85" d="M391.691,376.272c1-.218,2.158,1.155,2.573,3.074s-.054,3.641-1.057,3.859-2.158-1.155-2.583-3.074S390.688,376.49,391.691,376.272Z" transform="translate(33.173 24.291)" fill="#231f20"/>
    <path id="Path_86" data-name="Path 86" d="M387.939,472.161l-11.369-26.15,10.639,16.7L397.75,446l4.306,1.373Z" transform="translate(31.921 30.573)" fill="#295fc5"/>
    <path id="Path_87" data-name="Path 87" d="M390.851,368.047a18.983,18.983,0,0,0-5.461.011c-.338.076-.7.174-1.09.283.316-.447.61-.9.9-1.363h.011c.24-.382.48-.774.709-1.177a19.27,19.27,0,0,1,5.385.109,1.093,1.093,0,1,1-.458,2.137Z" transform="translate(32.618 23.338)"/>
    <path id="Path_88" data-name="Path 88" d="M385.025,368.33c-2.485.687-5.843,1.886-6.9,2.987a1.08,1.08,0,0,1-1.537.033,1.086,1.086,0,0,1-.033-1.537c2.06-2.18,8.4-3.739,9.124-3.9l.164-.033c.131-.011.414-.054.807-.087-.229.4-.469.8-.709,1.177h-.011C385.635,367.425,385.341,367.883,385.025,368.33Z" transform="translate(31.893 23.35)"/>
    <path id="Path_89" data-name="Path 89" d="M359.358,602.633c.054-2.18-4.066-12.1-4.066-12.1l2.518-1.189s15.108-32.222,13.473-40.942c-.741-3.979-13.244-34.544-19.893-50.644-2.442-5.9-4.088-9.854-4.088-9.854l-.872-.174-6.42,31.426-9.876,18.619,21.7,40.452A61.728,61.728,0,0,0,327.213,590.3c-10.159-16.45-28.766-46.807-28.963-48.987-.273-3,37.062-89.657,38.424-91.292.316-.382,3.085-1.079,7.14-1.908,10.061-2.082,28.036-5.058,36.244-6.4v.011l3.554,5.57.011.011,11.369,26.15,14.116-24.788,18.5,11.707v-5.81l-6.17-21.234c6.442-.6,14.956-1.341,20.755-1.646,3.5-.174,6.006-.2,6.486.076,1.908,1.09,49.052,50.142,52.322,49.87,2.322-.2,31.252-18.084,47.864-28.461,0,0,17.975,10.911,26.183,19.327-18,14.323-59.124,42.229-70.941,47.548-18.008-5.777-35.372-27.666-46.022-43.569,3.336,8.273,6.671,17.5,6.4,20.689a33.789,33.789,0,0,1-1.384,6.006c-2.54,8.448-7.609,20.7-7.609,20.7s26.161,47.69,32.974,80.391c0,0-1.635,3.815-41.694,13.626-4.622,1.134-9.364,2.038-14.127,2.747-36.528,5.527-74.636.012-74.636.012.785-8.22,1.319-16.908,1.352-18.02Z" transform="translate(24.868 29.272)" fill="#3e89fc"/>
    <path id="Path_90" data-name="Path 90" d="M365.455,400.165c-.545,9.265,13.081,7.358,13.081,7.358s11.718,21.256,3,42.24l-4.306.687c-8.208,1.341-26.183,4.317-36.244,6.4v-.011c-.033,0-9.865-.011-11.228-15.522-1.363-15.533,18.258-23.436,20.166-32.974s-10.628-17.441-8.448-32.7,14.443-34.609,49.6-40.332,40.2,25.3,27.055,42.49c-1.275-3.968-2.551-7.859-3.706-11.369a14.879,14.879,0,0,1,4.131-.153,1.087,1.087,0,1,0,.262-2.158,16.546,16.546,0,0,0-4.927.2l-.153.033c-5.385-15.152-20.21-15.413-20.21-15.413,2.387,7.26.578,14.018-2.682,19.665-.392.033-.676.076-.807.087l-.164.033c-.719.163-7.064,1.722-9.124,3.9a1.086,1.086,0,0,0,.033,1.537,1.08,1.08,0,0,0,1.537-.033c1.057-1.1,4.415-2.3,6.9-2.987A56.662,56.662,0,0,1,375.1,384.9l-.382,7.085S366,390.9,365.455,400.165Z" transform="translate(27.7 20.542)" fill="#1e1950"/>
    <path id="Path_91" data-name="Path 91" d="M349.444,566.11l5.974,11.117-2.518,1.189L334.489,587.1l-3.2,1.5s-2.627-4.219-6.464-10.421a61.743,61.743,0,0,1,24.624-12.078Z" transform="translate(27.261 41.389)" fill="#a9d9ff"/>
    <path id="Path_92" data-name="Path 92" d="M352.1,577.4s4.12,9.919,4.066,12.1c-.033,1.112-.567,9.8-1.352,18.019-.752,7.9-1.733,15.359-2.714,15.228-.752-.1-2.638-1.243-4.883-3.129-3.728-3.15-8.426-8.361-10.465-14.312a62.774,62.774,0,0,1-3.063-19.218L352.1,577.4Z" transform="translate(28.06 42.405)" fill="#fda181"/>
    <path id="Path_93" data-name="Path 93" d="M343.756,781.042c.818-15.533,4.044-161.862,4.469-163.911,2.245,1.886,4.131,3.03,4.883,3.128.981.131,1.962-7.325,2.714-15.228,0,0,38.108,5.516,74.636-.012v.012s-4.218,16.492-10.083,39.307c-12.6,48.932-32.778,126.926-35.2,133.433,0,0-1.908,44.343-25.616,101.3,0,0-.872.284-2.453.621a61.151,61.151,0,0,1-29.944-1.45c-1.526-.469-3.085-1-4.665-1.624C322.5,876.617,342.938,796.575,343.756,781.042Z" transform="translate(27.052 44.893)" fill="#295fc5"/>
    <path id="Path_94" data-name="Path 94" d="M330.655,855.67a61.139,61.139,0,0,0,29.944,1.45l-3,30.249-73.851,1.363s0-8.993,2.18-13.353,40.059-11.173,40.059-11.173Z" transform="translate(23.563 67.464)" fill="#1e1950"/>
    <path id="Path_95" data-name="Path 95" d="M343.852,483.264s1.646,3.957,4.088,9.854l-.022.011L336.56,514.516l6.42-31.426.872.174Z" transform="translate(28.318 33.913)" fill="#295fc5"/>
    <path id="Path_96" data-name="Path 96" d="M665.7,247.276c-1.07-10.189-10.011-26.309-18.165-31.978-2.311-1.607-10.021-5.339-12.936-2.757-4.776,4.23,2.3,11.531,4.939,14.387,4.407,4.767,9.263,9.626,12.192,15.224,2.177,4.159,2.965,9.663,5.795,13.3,7.936,10.192,12-2.7,7.447-10.354m-2.18,30.521c-1.013,2.5-4.031,12.252-2.92,15.261,1.7,4.6,6.9,5.825,10.078,1.453,5.025-6.909-5.663-22.007-8.61-13.081" transform="translate(55.012 9.469)" fill="#fff"/>
  </g>
</svg>
